<svg width="1000" height="1000" xmlns="http://www.w3.org/2000/svg">
 <metadata>Svg Vector Icons : http://www.onlinewebfonts.com/icon</metadata>

 <g>
  <title>background</title>
  <rect fill="none" id="canvas_background" height="602" width="802" y="-1" x="-1"/>
 </g>
 <g>
  <title>Layer 1</title>
  <path id="svg_4" d="m252.89999,211.8c-49,37 -68,127 -68.89999,126.2c0.89999,0.8 -37.10001,139.8 -38,139c0.89999,0.8 -29.10001,129.8 -29.10001,130.8c0,1 7,66 7,68c0,2 18,56 19,57c1,1 38,73 45,76c7,3 37,29 49,36c12,7 50,39 59,45c9,6 49,24 57,25c8,1 29,6 46,6c17,0 41,0 61,-4c20,-4 40,-4 52,-12c12,-8 45,-21 49,-24c4,-3 77,-64 79,-66c2,-2 194,-187 196,-189c2,-2 91,-110 90.10001,-110.8c0.89999,0.8 13.89999,-32.2 13,-33c0.89999,0.8 -2.10001,-32.2 -3,-33c0.89999,0.8 -26.10001,-28.2 -26.10001,-28.2c0,0 -16,-18 -17,-19c-1,-1 44,-84.8 42,-81.8c-2,3 -2,-24 -11,-28c-9,-4 -47,-53 -47.89999,-53c0.89999,0 -3.10001,-58 -3.10001,-60c0,-2 -32,-55 -34,-45c-2,10 -30,-4 -31,-4c-1,0 -58,25 -58.89999,25c0.89999,0 -20.10001,-17 -21,-17c0.89999,0 -21.10001,-37 -22.10001,-37c-1,0 -39,-5 -39.89999,-5c0.89999,0 -37.10001,9 -38,9c0.89999,0 -309.10001,311 -310,311c0.89999,0 13.89999,-108 13,-108c0.89999,0 0.89999,-60 0,-60c0.89999,0 -29.10001,-31 -30.10001,-31" stroke-width="0" stroke="#000" fill="#4361ee"/>
  <g transform="rotate(45 500.00003051757807,452.2106018066406) " id="svg_1">
   <g id="svg_2" transform="translate(0,472) scale(0.10000000149011612,-0.10000000149011612) ">
    <path fill="#480ca8" stroke-width="0" id="svg_3" d="m5070.53298,5060.18445c-139.7,-52.1 -277.3,-148 -356.5,-246c-81.3,-104.3 -164.7,-271.1 -181.4,-367c-8.3,-41.7 -20.8,-77.2 -29.2,-77.2c-6.3,0 -64.6,20.9 -127.2,43.8c-152.2,60.5 -400.3,64.6 -569.2,10.4c-231.4,-75.1 -444.1,-273.1 -529.6,-492.1c-35.4,-87.6 -37.5,-252.3 -47.9,-2124.7l-10.4,-2030.8l-223.1,291.9c-313,408.7 -429.7,504.6 -715.4,579.7c-296.1,77.1 -588,-2.1 -802.8,-218.9c-225.2,-223.1 -306.5,-565.1 -210.6,-873.6c60.5,-193.9 896.6,-1739 1249,-2306.1c656.8,-1059.2 1155.1,-1524.2 1884.9,-1764c402.4,-131.4 815.3,-185.6 1392.8,-187.7c952.9,-2.1 1607.6,231.4 2135.1,759c341.9,342 550.4,706.8 704.7,1234.4c135.5,465 129.3,346.1 135.5,3000.4c8.3,2623 8.3,2631.4 -106.4,2871.1c-75,160.5 -177.2,271.1 -319,346.1c-225.2,120.9 -500.4,139.7 -734,50c-102.1,-37.5 -106.3,-37.5 -106.3,-2.1c0,135.5 -50,475.4 -85.5,577.6c-118.9,350.3 -398.3,548.4 -769.4,548.4c-135.5,0 -364.9,-52.1 -433.7,-95.9c-27.1,-18.8 -52.1,-29.2 -54.2,-25c-4.2,4.2 -33.4,56.3 -64.6,116.8c-77.1,141.8 -229.4,283.6 -381.6,354.5c-160.3,72.9 -477.2,87.5 -644,27zm462.8,-417c95.9,-43.8 183.5,-131.4 223.1,-221c20.8,-50 29.2,-442 37.5,-1872.4l10.4,-1811.9l58.4,-50c79.2,-68.8 200.2,-68.8 279.4,0l58.4,50l10.4,1613.8c8.3,1428.3 14.6,1620.1 43.8,1684.7c70.9,150.1 181.4,210.6 389.9,210.6c189.8,0 269,-45.9 348.2,-200.2l62.5,-125.1l10.4,-1678.5c8.3,-1342.8 16.7,-1688.9 37.5,-1726.4c73,-129.3 285.7,-118.8 371.2,16.7c10.4,18.8 22.9,519.2 29.2,1178.1l10.4,1146.8l58.4,120.9c81.3,162.6 168.9,208.5 377.4,198.1c252.3,-12.5 348.2,-127.2 389.9,-458.7c14.6,-116.8 18.8,-957 12.5,-2468.7c-8.3,-2222.7 -8.3,-2297.7 -52.1,-2520.8c-79.2,-419.1 -221,-777.7 -425.4,-1082.2c-112.6,-164.7 -367,-419.1 -533.8,-531.7c-483.7,-325.3 -1165.6,-452.4 -2005.8,-375.3c-767.3,68.8 -1265.6,277.3 -1680.6,698.5c-337.8,342 -621.3,752.7 -1088.4,1576.3c-331.5,579.6 -742.3,1336.5 -840.3,1547.1c-166.8,356.5 -4.2,679.7 341.9,679.7c129.3,0 229.4,-35.4 325.3,-116.7c37.5,-31.3 252.3,-300.3 479.6,-600.5c227.3,-300.3 437.9,-556.7 467.1,-573.4c68.8,-37.5 196,-16.7 252.3,39.6c43.8,41.7 43.8,54.2 54.2,2393.7c10.4,2333.2 10.4,2349.9 54.2,2433.3c102.2,196 371.1,277.3 569.2,173.1c52.1,-27.1 123,-83.4 156.4,-127.2l64.6,-81.3l10.4,-1511.7l10.4,-1511.7l68.8,-60.5c95.9,-85.5 202.3,-83.4 287.7,4.2l60.5,62.5l10.4,1818.2l10.4,1818.2l48,77.2c115,183.3 344.3,254.2 536.1,164.6z"/>
   </g>
  </g>
 </g>
</svg>