<svg width="512" height="512" xmlns="http://www.w3.org/2000/svg">

 <g>
  <title>background</title>
  <rect fill="none" id="canvas_background" height="602" width="802" y="-1" x="-1"/>
 </g>
 <g>
  <title>Layer 1</title>
  <path id="svg_19" d="m13.5,270.05c0,0 0,228 1,228c1,0 394,-1 393.5,-1.05c0.5,0.05 2.5,-75.95 2,-76c0.5,0.05 85.5,-7.95 85,-8c0.5,0.05 6.5,-238.95 6,-239c0.5,0.05 -197.5,-156.95 -198,-157c0.5,0.05 -196.5,157.05 -197,157c0.5,0.05 -3.5,83.05 -4,83c0.5,0.05 -89.5,3.05 -88.5,13.05z" stroke-width="1.5" stroke="#000" fill="#fff"/>
  <g id="svg_1">
   <g id="svg_2">
    <path id="svg_3" d="m302,0l-210,164.545l0,79.819l-92,0l0,267.636l420,0l0,-80.521l92,0l0,-266.934l-210,-164.545zm-180,212.237l39.705,32.127l-39.705,0l0,-32.127zm242.094,62.086l-154.094,125.475l-154.094,-125.475l308.188,0zm25.906,207.718l-360,0l0,0l0,-190.156l180,146.57l180,-146.57l0,190.156zm4.641,-237.677l-185.283,0l-83.942,-67.922l176.584,-138.362l176.583,138.362l-83.942,67.922zm87.359,157.156l-62,0l0,-139.116l62,-50.168l0,189.284z"/>
   </g>
  </g>
  <g id="svg_4"/>
  <g id="svg_5"/>
  <g id="svg_6"/>
  <g id="svg_7"/>
  <g id="svg_8"/>
  <g id="svg_9"/>
  <g id="svg_10"/>
  <g id="svg_11"/>
  <g id="svg_12"/>
  <g id="svg_13"/>
  <g id="svg_14"/>
  <g id="svg_15"/>
  <g id="svg_16"/>
  <g id="svg_17"/>
  <g id="svg_18"/>
 </g>
</svg>